<?xml version="1.0" standalone="no"?>
<!DOCTYPE svg PUBLIC "-//W3C//DTD SVG 20010904//EN"
 "http://www.w3.org/TR/2001/REC-SVG-20010904/DTD/svg10.dtd">
<svg version="1.0" xmlns="http://www.w3.org/2000/svg"
 width="535.000000pt" height="535.000000pt" viewBox="0 0 535.000000 535.000000"
 preserveAspectRatio="xMidYMid meet">
<metadata>
Created by potrace 1.14, written by Peter Selinger 2001-2017
</metadata>
<g transform="translate(0.000000,535.000000) scale(0.100000,-0.100000)"
fill="#000000" stroke="none">
<path d="M1606 5112 c-3 -2 -2 -11 1 -20 5 -11 3 -13 -6 -7 -10 6 -11 3 -2
-13 8 -14 8 -23 1 -27 -7 -5 -8 -11 -1 -18 18 -22 -20 -51 -49 -38 -13 6 -50
7 -50 1 0 -3 -11 -6 -25 -6 -14 0 -25 4 -25 9 0 4 -6 5 -12 0 -18 -11 -32 -10
-40 2 -5 7 -8 6 -8 -1 0 -6 -11 -10 -25 -9 -14 2 -26 -2 -26 -8 -1 -7 -2 -28
-4 -47 -1 -19 -3 -45 -3 -56 -2 -15 -10 -23 -29 -27 -16 -3 -30 -2 -33 1 -8
11 -30 13 -30 3 0 -5 -8 -7 -17 -5 -16 4 -18 -3 -17 -61 l1 -67 -29 4 c-16 3
-31 0 -35 -5 -3 -5 -9 -3 -14 4 -8 12 -11 11 -19 -1 -9 -13 -10 -13 -10 0 0
12 -2 12 -9 2 -4 -8 -12 -14 -16 -15 -12 -3 -12 -447 -1 -447 6 0 5 -5 -1 -11
-5 -5 -8 -20 -6 -32 4 -21 10 -22 69 -21 36 1 67 -3 71 -9 4 -6 1 -7 -8 -2
-11 7 -12 6 -2 -6 7 -9 12 -33 12 -55 -2 -61 0 -74 12 -74 5 0 7 6 3 13 -6 9
-5 9 7 0 12 -10 18 -10 27 -1 7 7 12 8 12 3 0 -11 171 -12 189 -1 6 4 11 4 11
-1 0 -10 213 -9 229 1 6 4 11 2 11 -3 0 -6 5 -11 11 -11 5 0 7 5 4 10 -3 6 -1
10 5 10 7 0 8 6 0 19 -5 11 -6 22 -1 25 4 3 6 22 4 43 l-4 38 111 1 c74 1 110
-3 110 -10 0 -6 4 -5 9 3 5 8 16 11 24 8 13 -5 15 1 13 34 -2 23 1 39 8 39 6
0 5 4 -2 9 -15 9 -14 20 2 37 13 12 185 12 205 0 10 -6 12 -5 7 2 -8 13 13 16
30 4 6 -4 10 -52 9 -125 -1 -64 2 -122 6 -128 7 -12 109 -16 126 -6 5 3 8 28
7 56 -2 36 1 49 9 44 7 -4 7 0 -1 9 -15 19 -7 26 30 26 18 0 25 -5 21 -12 -4
-6 1 -5 10 3 9 7 26 11 36 8 12 -3 22 1 25 9 3 8 0 14 -7 14 -9 0 -8 3 1 9 17
11 17 21 0 32 -8 6 -9 12 -3 17 15 10 17 32 5 46 -5 7 -6 16 -2 20 10 11 9 30
-3 39 -7 4 -7 10 0 15 16 12 16 32 0 48 -11 12 -19 13 -36 3 -16 -8 -20 -8
-14 0 8 14 -31 11 -54 -3 -10 -6 -12 -5 -7 2 4 7 3 12 -3 12 -12 0 -10 112 4
125 13 13 65 15 65 2 0 -6 5 -5 13 1 7 7 18 7 27 2 16 -10 21 -50 6 -50 -6 0
-6 -4 2 -12 7 -7 8 -17 2 -29 -7 -12 -6 -20 0 -24 6 -4 8 -10 5 -15 -3 -5 19
-7 49 -5 31 2 58 -1 61 -6 4 -5 12 -6 18 -2 7 4 38 7 70 8 31 0 57 5 58 10 0
6 5 15 10 22 7 7 5 13 -3 16 -10 4 -10 8 2 16 8 6 11 11 5 11 -5 0 -10 11 -10
25 0 14 6 25 13 25 6 0 12 4 12 8 0 11 39 12 45 1 4 -5 13 -5 25 1 23 12 44
-11 35 -40 -3 -11 -2 -20 3 -20 5 0 9 -7 9 -15 0 -8 -4 -12 -8 -9 -4 2 -6 -8
-5 -23 3 -26 7 -28 47 -28 24 0 50 -4 58 -9 10 -6 12 -5 7 2 -4 7 -2 10 6 7
18 -7 22 -165 5 -165 -8 0 -9 -3 -1 -8 14 -10 14 -133 0 -125 -8 5 -7 2 0 -8
13 -17 13 -138 0 -158 -6 -9 -5 -12 1 -8 7 5 10 -22 9 -79 0 -47 1 -89 4 -94
3 -5 21 -7 40 -6 19 1 43 -2 53 -6 10 -5 17 -5 17 1 0 6 6 8 13 5 13 -5 16
-61 4 -80 -3 -6 -3 -14 1 -18 11 -12 9 -130 -2 -138 -7 -5 -7 -8 2 -8 6 0 12
-5 12 -11 0 -5 -6 -7 -12 -3 -10 6 -10 4 -2 -7 6 -8 10 -38 9 -67 -1 -30 2
-55 9 -59 17 -11 80 -10 88 2 5 6 8 5 8 -3 0 -8 5 -10 12 -6 8 5 9 2 5 -9 -3
-10 -2 -17 3 -17 5 0 7 -7 4 -15 -4 -8 0 -23 7 -32 8 -10 9 -14 2 -10 -15 9
-15 -175 1 -185 5 -4 18 -2 28 3 10 5 18 6 18 2 0 -4 17 -8 37 -8 31 0 38 -4
38 -20 0 -11 -4 -23 -10 -27 -6 -5 -5 -8 3 -8 10 0 10 -5 1 -21 -8 -16 -8 -20
1 -14 9 6 9 2 1 -14 -8 -14 -8 -21 -1 -21 7 0 8 -6 1 -18 -7 -13 -7 -22 0 -29
8 -8 7 -13 0 -17 -8 -5 -8 -13 -1 -27 8 -14 7 -19 -1 -19 -8 0 -8 -4 1 -15 10
-12 10 -18 0 -30 -7 -8 -8 -15 -3 -15 11 0 11 -29 0 -47 -4 -6 -3 -14 3 -18
23 -14 -16 -33 -67 -31 -31 1 -54 -2 -55 -9 -2 -19 -6 -60 -7 -89 -1 -21 -5
-27 -17 -22 -8 3 -13 2 -10 -2 3 -5 -49 -8 -115 -7 -95 1 -119 -1 -119 -12 0
-8 -5 -11 -12 -7 -7 5 -8 3 -2 -7 5 -8 9 -35 10 -62 l2 -47 -37 -1 c-20 -1
-48 -1 -63 -1 -16 -1 -29 -5 -29 -9 -1 -5 -2 -15 -3 -21 -1 -7 2 -19 7 -25 6
-8 6 -13 -1 -13 -12 0 -11 -18 2 -39 6 -10 5 -12 -2 -7 -7 4 -12 3 -12 -3 0
-6 -16 -10 -35 -9 -19 1 -38 -2 -42 -5 -3 -4 -12 -2 -19 4 -20 17 -25 -3 -27
-119 -1 -63 2 -102 8 -102 6 0 3 -5 -5 -11 -11 -8 -12 -12 -2 -16 6 -2 9 -10
5 -16 -8 -13 -9 -110 -1 -123 4 -5 -19 -9 -55 -9 -34 1 -67 -3 -74 -8 -8 -5
-11 -2 -9 10 2 10 0 32 -5 50 -4 18 -3 33 1 33 13 0 -1 40 -14 41 -6 0 -32 1
-58 1 -37 -1 -50 3 -58 18 -6 12 -6 21 -1 25 10 6 7 37 -5 57 -4 7 -3 8 4 4
18 -11 14 10 -4 29 -14 13 -19 14 -25 3 -5 -7 -9 -8 -9 -3 0 6 -20 9 -45 8
l-46 -1 5 39 c3 27 2 37 -6 33 -7 -4 -8 -3 -4 4 4 7 9 21 11 31 3 16 -1 19
-22 15 -13 -3 -22 -1 -20 3 6 9 -56 8 -70 0 -5 -3 -15 -2 -23 3 -9 5 -19 5
-27 -2 -8 -6 -13 -6 -13 -1 0 8 -39 10 -47 3 -2 -2 -9 -3 -15 -4 -24 -3 -34
18 -32 66 2 28 -1 48 -7 48 -6 0 -7 4 -4 10 3 5 -14 8 -45 6 -28 -1 -53 1 -56
5 -3 5 -16 4 -29 -1 -18 -7 -25 -6 -25 3 0 7 -3 8 -8 2 -4 -5 -18 -9 -32 -8
-14 0 -33 1 -43 2 -10 1 -15 6 -12 11 3 6 2 10 -4 10 -10 0 -9 19 2 38 5 7 3
12 -3 12 -7 0 -7 7 1 22 7 12 8 23 3 25 -10 3 -10 65 0 81 4 7 3 12 -3 12 -7
0 -7 8 -1 25 5 14 6 25 1 25 -11 0 -9 19 2 38 5 7 3 12 -3 12 -7 0 -7 7 1 22
7 12 8 23 3 25 -10 3 -10 65 0 81 4 7 3 12 -3 12 -7 0 -7 8 -1 25 5 14 6 25 1
25 -11 0 -9 19 2 38 5 7 3 12 -3 12 -7 0 -7 7 1 22 8 16 9 23 1 26 -8 2 -8 11
-1 29 5 13 7 28 5 31 -2 4 25 5 60 2 64 -5 71 -2 65 33 0 4 4 7 9 7 7 0 7 6 1
18 -7 13 -6 23 1 30 7 7 8 12 2 12 -5 0 -10 11 -10 25 0 14 5 25 11 25 6 0 7
3 0 8 -13 9 -14 75 0 84 7 5 7 8 -1 8 -6 0 -11 7 -11 15 0 8 4 15 9 15 5 0 4
9 -2 20 -8 14 -8 20 0 20 7 0 8 5 3 13 -21 34 -1 76 26 54 12 -9 13 -9 7 1 -4
7 -2 12 6 12 8 0 20 -6 27 -12 11 -11 12 -10 6 0 -5 10 -1 13 11 12 40 -5 41
-3 40 130 -1 81 3 130 9 130 6 0 6 3 -1 8 -6 4 -10 27 -8 52 1 25 -3 53 -10
61 -11 16 -49 19 -62 6 -4 -3 -15 -2 -25 4 -13 7 -19 6 -19 -1 0 -6 -4 -9 -8
-6 -10 6 -10 -34 1 -50 3 -6 3 -14 0 -18 -12 -11 -10 -66 2 -66 6 0 7 -3 0 -8
-12 -8 -13 -52 -2 -69 4 -6 3 -14 -3 -18 -6 -4 -8 -10 -5 -15 10 -16 -15 -22
-32 -8 -9 7 -14 8 -10 2 4 -7 -11 -10 -44 -10 -48 -1 -77 -12 -52 -21 10 -4
10 -10 2 -25 -8 -16 -8 -19 1 -13 9 6 9 3 2 -12 -6 -11 -7 -25 -2 -33 5 -8 6
-19 2 -25 -10 -15 -9 -29 3 -37 6 -5 5 -8 -3 -8 -8 0 -10 -5 -6 -12 6 -10 9
-73 4 -80 -6 -10 -4 -58 3 -58 4 0 5 -5 1 -11 -4 -7 -8 -21 -9 -33 -4 -39 -5
-41 -15 -26 -6 10 -10 11 -10 2 0 -14 -21 -12 -32 3 -5 6 -8 6 -8 -2 0 -7 -11
-10 -29 -8 -28 4 -29 2 -28 -39 0 -23 -3 -48 -7 -54 -4 -7 -4 -12 1 -12 4 0 8
-18 8 -40 0 -22 -3 -40 -7 -40 -4 0 -3 -12 3 -27 7 -19 6 -28 -2 -33 -8 -6 -7
-9 2 -13 11 -4 11 -6 1 -6 -7 -1 -10 -5 -7 -11 9 -15 12 -90 3 -90 -4 0 -3
-11 2 -24 6 -17 5 -26 -3 -30 -7 -2 -7 -5 -2 -5 11 -1 11 -78 1 -89 -11 -10
-96 -11 -96 -1 0 6 -6 4 -14 -3 -7 -7 -13 -23 -11 -35 1 -13 -3 -23 -9 -23 -6
0 -5 -4 2 -9 15 -9 15 -20 2 -36 -5 -6 -5 -17 0 -25 5 -9 5 -19 -1 -26 -7 -8
-6 -14 1 -19 8 -5 8 -11 -1 -21 -7 -9 -8 -14 -1 -14 11 0 11 -18 -1 -37 -4 -6
-1 -14 5 -16 16 -7 -8 -8 -125 -9 -52 -1 -98 2 -104 5 -14 9 -45 -21 -37 -34
3 -6 0 -17 -8 -26 -9 -12 -9 -15 0 -9 9 5 11 -2 10 -28 -2 -20 -5 -36 -8 -37
-32 -5 -60 -3 -60 6 0 5 -4 5 -8 -2 -5 -8 -13 -9 -22 -3 -8 5 -21 5 -32 -1
-13 -7 -18 -6 -18 3 0 8 -3 9 -8 3 -9 -13 -42 -16 -42 -3 0 5 -5 6 -11 2 -7
-4 -26 -7 -43 -6 -22 1 -26 -2 -16 -8 8 -6 10 -10 5 -10 -7 0 -10 -22 -8 -54
2 -46 -1 -55 -17 -59 -10 -3 -21 -2 -24 1 -3 3 -21 5 -40 6 -27 1 -37 -4 -45
-21 -7 -16 -7 -23 0 -23 6 0 7 -4 4 -10 -12 -20 -14 -50 -2 -50 7 0 6 -4 -3
-10 -13 -9 -13 -10 0 -10 12 -1 12 -3 -2 -11 -10 -5 -42 -8 -71 -7 -44 3 -54
1 -49 -11 4 -10 1 -12 -9 -6 -12 7 -12 6 -1 -7 10 -12 10 -18 1 -23 -8 -6 -7
-10 2 -16 12 -8 11 -11 -1 -19 -12 -8 -12 -10 -1 -10 10 0 11 -3 2 -14 -9 -11
-9 -15 1 -19 10 -4 10 -8 -2 -16 -12 -8 -12 -11 -1 -11 11 0 11 -3 1 -15 -9
-10 -9 -15 -1 -15 6 0 11 -5 11 -11 0 -5 -6 -7 -12 -3 -10 6 -10 4 0 -8 9 -11
10 -18 2 -23 -14 -9 -13 -28 3 -19 7 4 8 3 4 -2 -11 -12 -118 -14 -111 -2 4 5
-3 4 -14 -3 -18 -11 -19 -24 -18 -290 1 -152 -2 -275 -6 -273 -4 2 -4 -8 0
-23 4 -16 7 -67 6 -115 -1 -69 2 -88 12 -88 8 0 14 -6 14 -12 0 -9 3 -9 8 -3
9 13 42 13 61 1 10 -6 12 -5 7 2 -4 7 -1 12 8 12 25 0 28 -16 28 -143 0 -67 2
-125 5 -129 2 -5 13 -4 23 2 13 7 21 7 26 -1 4 -8 9 -7 15 2 6 10 9 10 9 2 0
-6 8 -10 18 -8 10 2 25 -1 33 -6 12 -7 12 -9 0 -9 -10 0 -11 -3 -2 -13 6 -8 8
-16 5 -20 -10 -10 -12 -57 -2 -57 5 0 7 -4 4 -9 -3 -5 12 -11 34 -13 22 -2 42
1 44 7 3 6 5 5 5 -2 1 -6 9 -9 20 -6 16 4 18 -2 19 -44 0 -98 -1 -94 35 -91
18 1 38 -2 45 -6 7 -4 12 -2 12 5 0 9 3 9 14 0 11 -9 15 -9 18 0 3 9 9 9 23 2
11 -7 28 -8 41 -3 15 6 24 5 28 -3 3 -8 5 -8 5 -1 1 6 11 9 24 7 19 -4 22 -11
24 -54 1 -32 -2 -47 -9 -43 -7 5 -7 1 0 -12 9 -17 24 -19 135 -20 68 -1 129
-4 136 -8 6 -4 11 -4 11 1 0 7 63 7 295 3 6 0 49 1 98 2 49 2 87 -1 87 -6 0
-6 7 -1 16 10 8 10 12 13 8 5 -4 -9 -3 -12 4 -8 5 4 10 32 9 63 -2 50 1 58 21
65 15 6 22 5 22 -4 0 -8 4 -6 10 3 7 11 10 11 10 2 0 -7 5 -10 10 -7 14 9 135
9 149 1 6 -4 11 -3 11 2 0 6 8 9 17 8 14 -1 17 10 17 64 l1 65 45 2 c25 1 55
2 68 2 20 1 21 4 12 21 -6 11 -7 20 -2 20 13 0 11 34 -2 42 -7 5 -7 8 2 8 7 0
10 4 7 10 -3 5 -1 18 4 27 6 10 11 14 11 8 0 -8 51 -11 104 -6 4 1 6 12 4 26
-3 14 -2 25 1 25 7 0 5 135 -3 155 -3 8 0 15 7 15 9 0 9 2 0 8 -9 5 -9 11 0
22 9 12 32 16 89 16 46 0 74 -4 71 -10 -4 -5 -1 -6 8 0 14 9 93 15 85 6 -3 -2
2 -11 10 -19 8 -8 11 -20 7 -26 -12 -20 -12 -57 0 -57 8 0 7 -3 -2 -9 -22 -14
7 -26 69 -26 l55 0 0 -62 c0 -34 1 -60 4 -57 2 2 10 -1 18 -7 10 -9 13 -8 13
2 0 9 3 10 8 4 8 -12 142 -14 142 -2 0 4 8 3 18 -2 11 -6 24 -6 36 1 14 8 17
7 12 -1 -4 -6 -1 -11 7 -11 10 0 13 -14 10 -61 -2 -40 0 -58 7 -54 5 3 10 3
10 -2 0 -4 20 -8 45 -8 25 0 45 5 45 10 0 7 3 7 8 0 9 -12 102 -14 102 -2 0 4
5 5 11 1 16 -10 99 -11 99 -1 0 5 6 5 13 0 18 -11 37 -12 37 -2 0 6 5 7 11 3
16 -10 99 -11 99 -1 0 5 5 5 11 1 16 -9 119 -10 119 -1 0 5 5 5 11 1 17 -10
99 -10 99 0 0 5 6 4 13 -2 7 -6 21 -6 34 -1 21 7 22 13 18 64 -4 45 -2 55 11
55 9 0 12 5 8 12 -5 7 -3 8 6 3 19 -12 100 -14 93 -2 -3 5 5 3 18 -3 17 -10
24 -10 27 -2 2 7 11 9 20 4 20 -8 50 -8 72 2 15 6 19 83 5 105 -6 11 19 16 63
12 16 -1 21 2 17 9 -6 9 -2 9 12 2 21 -12 49 0 39 16 -3 6 -2 14 4 17 8 5 8
11 0 20 -8 10 -7 14 2 18 10 4 10 6 -1 6 -11 1 -11 4 -1 16 10 12 10 15 -1 15
-10 0 -10 3 -1 12 16 16 72 20 72 5 0 -8 3 -7 9 1 4 8 11 13 15 13 33 -5 34
-1 33 120 -1 131 5 145 50 128 16 -6 22 -5 18 1 -3 6 -2 10 4 10 5 0 13 -5 16
-10 4 -7 11 -8 18 -1 11 9 18 11 33 11 4 0 0 8 -7 17 -8 9 -9 14 -3 10 7 -4
10 25 10 93 0 67 -3 97 -10 93 -7 -4 -7 -1 0 8 13 16 14 207 1 226 -4 6 -3 14
2 17 10 7 9 206 -2 223 -4 6 -3 14 3 18 13 8 10 75 -4 76 -6 0 -37 1 -68 1
-52 1 -58 3 -59 22 -5 110 -2 223 5 234 6 9 4 11 -8 6 -9 -3 -16 -1 -16 6 0 6
-5 8 -11 5 -17 -11 -59 -13 -59 -3 0 5 -9 4 -19 -1 -15 -9 -20 -7 -24 9 -3 11
-1 23 5 26 7 4 6 9 -1 13 -7 5 -8 17 -2 39 6 20 6 30 0 27 -5 -4 -9 -2 -9 3 0
5 -17 10 -37 10 -93 1 -84 -10 -83 93 l1 45 -131 0 c-98 -1 -130 2 -130 11 0
7 -6 13 -12 13 -9 0 -10 3 -2 8 12 8 13 40 1 59 -4 6 -2 15 4 19 8 4 7 9 -2
15 -20 13 -31 11 -23 -3 6 -10 4 -10 -7 -2 -8 6 -29 10 -46 9 -19 -1 -33 3
-33 9 0 8 -3 8 -8 0 -4 -7 -26 -12 -49 -11 -24 0 -39 5 -36 10 4 6 1 7 -8 1
-8 -5 -51 -9 -96 -10 -78 -1 -83 0 -84 20 -1 12 -1 64 -1 116 1 100 -12 148
-34 129 -8 -7 -14 -7 -19 1 -4 7 -11 8 -18 2 -15 -12 -61 4 -52 18 3 5 2 10
-2 10 -10 0 -10 41 1 58 4 7 2 12 -4 12 -7 0 -8 6 -2 18 5 9 6 26 2 37 -4 11
-3 25 2 32 6 7 5 14 -2 18 -8 5 -8 10 0 20 9 10 7 16 -8 24 -11 6 -22 7 -26 4
-3 -3 -6 -1 -6 6 0 9 -5 9 -20 1 -15 -8 -20 -8 -20 2 0 8 -3 9 -8 3 -4 -6 -12
-11 -19 -10 -14 0 -41 25 -27 25 5 0 2 5 -6 10 -9 6 -10 10 -3 10 8 0 9 9 3
29 -4 16 -5 32 -2 36 11 11 10 35 -1 35 -8 0 -7 3 2 9 10 6 10 13 2 28 -5 11
-8 23 -5 26 11 10 11 42 0 52 -6 6 -37 11 -69 10 -32 -1 -61 3 -64 8 -3 6 -2
8 3 4 8 -4 11 223 3 243 -1 3 0 10 1 15 1 6 3 35 4 66 2 61 4 60 -69 59 -65
-1 -61 -13 -60 159 1 97 -3 161 -9 170 -8 11 -8 13 2 7 6 -4 12 -2 12 3 0 6
-6 11 -12 11 -9 0 -9 3 -2 8 12 9 13 191 0 211 -6 10 -5 12 2 7 7 -4 12 -2 12
3 0 6 -6 11 -12 11 -10 0 -10 2 -1 8 6 4 10 19 10 34 -1 14 -5 24 -9 21 -5 -2
-8 0 -8 5 0 5 -18 9 -40 8 -22 -1 -40 -5 -40 -10 0 -5 -6 -3 -13 3 -8 6 -17 8
-20 4 -8 -7 -9 1 -11 127 -1 52 2 103 6 112 7 14 5 16 -8 11 -13 -5 -15 -3 -8
8 13 21 14 109 1 109 -6 0 -2 7 9 16 10 8 13 12 5 8 -9 -5 -12 -3 -7 4 4 7 2
12 -3 12 -6 0 -11 -4 -11 -8 0 -5 -13 -8 -30 -8 -16 0 -30 4 -30 8 0 5 -6 6
-12 1 -7 -4 -20 -8 -28 -8 -17 0 -21 -46 -5 -57 6 -5 6 -8 -2 -8 -8 0 -11 -12
-8 -33 3 -22 0 -34 -8 -34 -6 -1 -27 -3 -44 -6 -18 -2 -33 -1 -33 3 0 4 -7 7
-15 7 -8 0 -15 -4 -15 -8 0 -5 -11 -5 -23 0 -13 5 -30 5 -37 1 -9 -5 -20 -4
-27 2 -10 8 -13 7 -13 -3 0 -11 -2 -11 -10 1 -6 9 -10 11 -10 3 0 -7 -7 -10
-16 -6 -11 4 -15 19 -14 57 1 28 1 56 0 61 -1 6 -2 13 -1 17 0 3 -11 5 -24 3
-14 -1 -25 3 -25 9 0 7 -3 7 -8 1 -10 -14 -62 -15 -62 -2 0 7 -4 7 -12 -1 -7
-7 -17 -8 -30 -1 -10 5 -18 6 -18 1 0 -5 -13 -8 -30 -8 -16 0 -30 3 -30 6 0 8
-32 6 -47 -3 -6 -4 -14 -3 -18 3 -4 6 -11 8 -16 5 -19 -12 -49 -13 -49 -2 0 8
-3 8 -8 2 -9 -13 -65 -14 -74 0 -5 7 -8 7 -8 0 0 -12 -39 -13 -57 -2 -6 4 -9
25 -7 48 3 25 -1 48 -8 57 -11 13 -11 14 2 7 9 -5 12 -5 7 1 -13 13 -327 13
-327 0 0 -8 -3 -8 -8 0 -7 10 -177 16 -186 6z m658 -664 c-5 -7 -3 -8 7 -3 7
5 37 10 66 11 58 2 55 6 55 -81 0 -14 0 -31 -1 -38 -1 -8 -21 -12 -68 -12 -58
1 -68 3 -71 19 -3 13 0 16 10 10 10 -6 11 -5 2 7 -6 8 -10 32 -9 54 2 44 3 45
11 45 3 0 2 -5 -2 -12z"/>
<path d="M3043 5107 c-4 -6 -1 -7 7 -2 9 6 11 4 5 -6 -14 -22 -15 -60 -2 -52
9 5 9 3 0 -8 -10 -12 -9 -20 4 -38 12 -18 17 -20 24 -10 5 8 9 9 9 3 0 -15 77
-11 93 5 9 9 9 14 -2 20 -9 6 -10 11 -2 15 6 4 11 12 11 17 0 6 -6 7 -12 3
-10 -6 -10 -5 -1 7 7 8 10 24 7 35 -5 18 -14 20 -70 20 -36 0 -68 -4 -71 -9z"/>
<path d="M2150 4062 c0 -7 -4 -10 -10 -7 -12 7 -11 9 -13 -71 l-2 -60 36 2
c20 1 42 5 48 8 6 4 11 2 11 -3 0 -8 5 -8 18 0 13 8 17 25 18 68 l0 58 -33 1
c-19 1 -38 4 -43 7 -6 4 -10 0 -10 -7 0 -9 -3 -9 -10 2 -7 11 -10 11 -10 2z"/>
</g>
</svg>
